<svg width="30" height="32" viewBox="0 0 30 32" fill="none" xmlns="http://www.w3.org/2000/svg">
<path opacity="0.2" d="M29.7458 31.5024C29.7458 31.2294 23.6262 31.0047 16.0863 31.0047C8.54636 31.0047 2.42676 31.2294 2.42676 31.5024C2.42676 31.7753 8.54636 32 16.0863 32C23.6437 32 29.7458 31.7753 29.7458 31.5024Z" fill="#5D5D5D"/>
<path d="M16.2791 6.29858C22.2234 6.29858 27.0454 10.7133 27.0454 16.1554V26.0121H16.2791C10.3349 26.0121 5.51282 21.5975 5.51282 16.1554V6.29858H16.2791Z" fill="#63A60F"/>
<path opacity="0.3" d="M25.5024 11.0825C24.6082 12.0297 24.0646 13.2658 24.0646 14.6143C24.0646 16.6209 25.2569 18.3708 27.0279 19.3179V16.1554C27.0279 14.3093 26.4844 12.5755 25.5024 11.0825Z" fill="#63A60F"/>
<path d="M21.2765 7.43835C19.5932 8.32129 18.4709 9.97479 18.4709 11.8851C18.4709 14.7105 20.9784 17.0062 24.0645 17.0062C25.1517 17.0062 26.1687 16.7172 27.0279 16.2196V16.1553C27.0279 12.3667 24.6958 9.0758 21.2765 7.43835Z" fill="#63A60F"/>
<path opacity="0.5" d="M12.8248 8.2085C10.0543 8.2085 7.51177 9.09143 5.51282 10.5844V16.171C5.51282 21.6131 10.3349 26.0278 16.2791 26.0278H21.4343C23.3105 24.1335 24.4503 21.6291 24.4503 18.8679C24.4503 12.9764 19.2425 8.2085 12.8248 8.2085Z" fill="#EFF6E7"/>
<path d="M27.0279 25.9961L16.2791 26.0121C10.3349 26.0121 5.51282 21.5975 5.51282 16.1554V6.31464L27.0279 25.9961Z" fill="#63A60F"/>
<path opacity="0.3" d="M7.17859 9.83033C7.17859 17.3112 13.8067 23.3633 21.9603 23.3633C22.6617 23.3633 23.3456 23.3152 24.0119 23.2349L7.31887 7.96814C7.23119 8.57817 7.17859 9.20425 7.17859 9.83033Z" fill="#63A60F"/>
<path opacity="0.3" d="M27.0278 26.0121L5.60046 6.3949C8.12546 9.84637 11.0362 13.346 13.9996 16.2356C16.3142 18.4831 22.9949 23.5078 27.0278 26.0121Z" fill="#63A60F"/>
<path opacity="0.3" d="M12.5442 12.736L5.51282 6.31464V16.1714C5.51282 20.5219 8.59892 24.2142 12.8598 25.5145C11.0362 23.8289 9.91402 21.5172 9.91402 18.9808C9.91402 16.5727 10.9135 14.3895 12.5442 12.736Z" fill="#63A60F"/>
<path opacity="0.3" d="M22.1182 21.5172C20.2946 23.556 17.5241 24.8724 14.4205 24.8724C12.3514 24.8724 10.4226 24.2944 8.8269 23.2991C10.7557 24.9847 13.3684 26.0282 16.2616 26.0282H27.0279V26.0121L22.1182 21.5172Z" fill="#63A60F"/>
<path opacity="0.3" d="M6.14407 12.2062C6.14407 10.6169 6.44216 9.07582 7.00327 7.66312L5.51282 6.31464V16.1714C5.51282 21.6135 10.3349 26.0282 16.2791 26.0282H27.0454V26.0121L25.9758 25.0329C24.4152 25.5466 22.7494 25.8195 20.9959 25.8195C12.7897 25.8034 6.14407 19.7192 6.14407 12.2062Z" fill="#EFF6E7"/>
<path d="M26.8526 27.9225C27.6066 27.7298 28.3956 28.1472 28.5885 28.8375C28.7989 29.5278 28.343 30.2502 27.5715 30.4268C26.8175 30.6194 26.0285 30.2021 25.8356 29.5118C25.6427 28.8215 26.0986 28.1151 26.8526 27.9225ZM26.572 26.9432C25.2219 27.2803 24.4153 28.5325 24.7835 29.7686C25.1342 31.0047 26.5194 31.7432 27.8696 31.4061C29.2198 31.0689 30.0264 29.8007 29.6581 28.5807C29.3074 27.3445 27.9222 26.6221 26.572 26.9432Z" fill="#63A60F"/>
<path opacity="0.5" d="M28.3603 29.961C28.1674 30.1857 27.9044 30.3623 27.5888 30.4426C26.8348 30.6352 26.0457 30.2178 25.8528 29.5276C25.7126 29.0138 25.9054 28.5001 26.3263 28.1951C26.1158 27.9222 25.9405 27.6172 25.7652 27.3122C24.9235 27.858 24.5027 28.8373 24.7832 29.8005C25.1339 31.0366 26.5191 31.775 27.8693 31.4379C28.5006 31.2774 29.0091 30.9242 29.3422 30.4586C29.0091 30.2981 28.6759 30.1376 28.3603 29.961Z" fill="#63A60F"/>
<path d="M6.02114 27.9225C6.77513 27.7459 7.56419 28.1633 7.75708 28.8536C7.94996 29.5439 7.49406 30.2663 6.74006 30.4428C5.98607 30.6194 5.19701 30.202 5.00413 29.5118C4.81125 28.8215 5.26715 28.0991 6.02114 27.9225ZM5.74059 26.9432C4.39042 27.2643 3.58382 28.5325 3.93452 29.7686C4.28521 31.0047 5.67045 31.7432 7.02062 31.4221C8.37079 31.101 9.17738 29.8328 8.84423 28.5967C8.476 27.3606 7.09076 26.6221 5.74059 26.9432Z" fill="#63A60F"/>
<path opacity="0.5" d="M7.51179 29.9771C7.31891 30.2018 7.05589 30.3784 6.74026 30.4426C5.98627 30.6192 5.19722 30.2018 5.00433 29.5115C4.86406 28.9978 5.07447 28.4841 5.47777 28.1791C5.26735 27.9062 5.09201 27.6012 4.9342 27.2961C4.09253 27.8259 3.65417 28.8052 3.93472 29.7684C4.28541 31.0045 5.67065 31.7429 7.02082 31.4219C7.65206 31.2774 8.1781 30.9082 8.49373 30.4426C8.14303 30.3142 7.82741 30.1537 7.51179 29.9771Z" fill="#63A60F"/>
<path d="M6.19668 5.62429C5.86352 5.62429 5.58297 5.36744 5.58297 5.06242C5.58297 3.74605 5.17967 2.75074 4.40814 2.09255C3.16318 1.01697 1.28697 1.12935 1.26944 1.12935C0.936277 1.16145 0.638187 0.920651 0.603118 0.615637C0.568049 0.310623 0.831069 0.0377154 1.16423 0.00560866C1.26944 0.00560866 3.58401 -0.154925 5.23227 1.24172C6.28435 2.12466 6.81039 3.40893 6.81039 5.04637C6.81039 5.36744 6.54737 5.62429 6.19668 5.62429Z" fill="#63A60F"/>
</svg>
